<?xml version="1.0" encoding="utf-8"?>
<svg id="ic_fluent_settings_20_regular" width="16" height="16" style="width:16px;height:16px;"
    version="1.1" xmlns="http://www.w3.org/2000/svg" viewBox="0 0 500 500"
    enable-background="new 0 0 500 500" xml:space="preserve"><path fill="#000000" d="M12.35 173.53 q16.47 -51.77 51.77 -90.59 q7.06 -8.23 16.47 -4.7 l56.47 20 q12.94 4.7 24.7 -1.77 q11.77 -6.47 14.12 -20.59 l10.59 -58.82 q1.18 -9.41 11.77 -11.77 q51.76 -10.58 103.52 0 q10.59 2.36 11.77 11.77 l10.59 58.82 q2.35 14.12 14.12 20.59 q11.76 6.47 24.7 1.77 l56.47 -20 q9.41 -3.53 16.47 4.7 q35.3 38.82 51.77 90.59 q3.53 9.41 -4.71 15.29 l-44.7 38.83 q-10.59 8.23 -10.59 22.35 q0 14.12 10.59 22.35 l44.7 38.83 q8.24 5.88 4.71 15.29 q-16.47 51.77 -51.77 90.59 q-7.06 8.23 -16.47 4.7 l-56.47 -20 q-12.94 -4.7 -24.7 1.77 q-11.76 6.47 -14.12 20.59 l-10.59 58.82 q-1.18 9.41 -11.77 11.77 q-51.76 10.58 -103.52 0 q-10.59 -2.36 -11.77 -11.77 l-10.59 -58.82 q-2.35 -14.12 -14.12 -20.59 q-11.76 -6.47 -24.7 -1.77 l-56.47 20 q-9.41 3.53 -16.47 -4.7 q-35.3 -38.82 -51.77 -90.59 q-3.53 -9.41 4.71 -15.29 l44.7 -38.83 q10.59 -8.23 10.59 -22.35 q0 -14.12 -10.59 -22.35 l-44.7 -38.83 q-8.24 -5.88 -4.71 -15.29 ZM42.94 172.35 l38.82 32.94 q20 17.65 20 44.71 q0 27.06 -20 44.71 l-38.82 32.94 q12.94 34.11 36.47 62.35 l47.06 -16.47 q25.88 -9.41 49.41 4.12 q23.53 13.53 28.24 40.59 l9.41 49.41 q36.47 5.88 72.94 0 l9.41 -49.41 q4.71 -27.06 28.24 -40.59 q23.53 -13.53 49.41 -4.12 l47.06 16.47 q23.53 -28.24 36.47 -62.35 l-38.82 -32.94 q-20 -17.65 -20 -44.71 q0 -27.06 20 -44.71 l38.82 -32.94 q-12.94 -34.11 -36.47 -62.35 l-47.06 16.47 q-25.88 9.41 -49.41 -4.12 q-23.53 -13.53 -28.24 -40.59 l-9.41 -49.41 q-36.47 -5.88 -72.94 0 l-9.41 49.41 q-4.71 27.06 -28.24 40.59 q-23.53 13.53 -49.41 4.12 l-47.06 -16.47 q-23.53 28.24 -36.47 62.35 ZM177.06 250 q0 -30.59 21.18 -51.76 q21.17 -21.18 51.76 -21.77 q30.59 -0.59 52.36 21.17 q21.76 21.77 21.76 52.36 q0 30.59 -21.76 51.76 q-21.77 21.18 -52.36 21.76 q-30.59 0.59 -51.76 -21.17 q-21.18 -21.77 -21.18 -52.36 ZM206.47 250 q0 18.82 12.94 31.17 q12.94 12.36 31.17 12.36 q18.24 0 31.18 -12.36 q12.94 -12.35 12.94 -31.17 q0 -18.82 -12.94 -31.76 q-12.94 -12.95 -31.18 -12.95 q-18.23 0 -31.17 12.95 q-12.94 12.94 -12.94 31.76 Z"/></svg>