<?xml version="1.0" encoding="utf-8"?>
<svg id="ic_fluent_settings_20_filled" width="16" height="16" style="width:16px;height:16px;"
    version="1.1" xmlns="http://www.w3.org/2000/svg" viewBox="0 0 500 500"
    enable-background="new 0 0 500 500" xml:space="preserve">
    <path fill="#000000" d="M12.35 173.53 q16.47 -51.77 51.77 -90.59 q7.06 -8.23 16.47 -4.7 l56.47 20 q12.94 4.7 24.7 -1.77 q11.77 -6.47 14.12 -20.59 l10.59 -58.82 q1.18 -9.41 11.77 -11.77 q51.76 -10.58 103.52 0 q10.59 2.36 11.77 11.77 l10.59 58.82 q2.35 14.12 14.12 20.59 q11.76 6.47 24.7 1.77 l56.47 -20 q9.41 -3.53 16.47 4.7 q35.3 38.82 51.77 90.59 q3.53 9.41 -4.71 15.29 l-44.7 38.83 q-10.59 8.23 -10.59 22.35 q0 14.12 10.59 22.35 l44.7 38.83 q8.24 5.88 4.71 15.29 q-16.47 51.77 -51.77 90.59 q-7.06 8.23 -16.47 4.7 l-56.47 -20 q-12.94 -4.7 -24.7 1.77 q-11.76 6.47 -14.12 20.59 l-10.59 58.82 q-1.18 9.41 -11.77 11.77 q-51.76 10.58 -103.52 0 q-10.59 -2.36 -11.77 -11.77 l-10.59 -58.82 q-2.35 -14.12 -14.12 -20.59 q-11.76 -6.47 -24.7 -1.77 l-56.47 20 q-9.41 3.53 -16.47 -4.7 q-35.3 -38.82 -51.77 -90.59 q-3.53 -9.41 4.71 -15.29 l44.7 -38.83 q10.59 -8.23 10.59 -22.35 q0 -14.12 -10.59 -22.35 l-44.7 -38.83 q-8.24 -5.88 -4.71 -15.29 ZM191.18 250 q0 15.29 7.64 29.41 q7.65 14.12 21.77 21.76 q14.12 7.65 29.41 7.65 q15.29 0 29.41 -7.65 q14.12 -7.64 21.76 -21.76 q7.65 -14.12 7.65 -29.41 q0 -24.71 -17.06 -41.76 q-17.06 -17.06 -41.76 -17.06 q-24.71 0 -41.76 17.06 q-17.06 17.05 -17.06 41.76 Z"/></svg>